<svg width="214" height="59" viewBox="0 0 214 59" fill="none" xmlns="http://www.w3.org/2000/svg">
<path d="M17.627 47.5C14.5603 47.5 11.9436 46.9667 9.77695 45.9C7.64362 44.8333 5.97695 43.3 4.77695 41.3C3.61029 39.2667 2.97695 36.85 2.87695 34.05C2.84362 32.6167 2.82695 31.0833 2.82695 29.45C2.82695 27.7833 2.84362 26.2167 2.87695 24.75C2.97695 21.9833 3.61029 19.6167 4.77695 17.65C5.97695 15.6833 7.66029 14.1667 9.82695 13.1C12.027 12.0333 14.627 11.5 17.627 11.5C20.0603 11.5 22.1936 11.8333 24.027 12.5C25.8603 13.1333 27.377 13.9667 28.577 15C29.8103 16 30.727 17.0833 31.327 18.25C31.9603 19.4167 32.2936 20.5 32.327 21.5C32.3603 21.8 32.277 22.05 32.077 22.25C31.877 22.45 31.6103 22.55 31.277 22.55H26.127C25.7936 22.55 25.5436 22.4833 25.377 22.35C25.2103 22.2167 25.0603 22.0167 24.927 21.75C24.6603 21.05 24.2436 20.3667 23.677 19.7C23.1103 19 22.3436 18.4167 21.377 17.95C20.4103 17.4833 19.1603 17.25 17.627 17.25C15.3603 17.25 13.5436 17.85 12.177 19.05C10.8436 20.25 10.127 22.2333 10.027 25C9.92695 27.9 9.92695 30.8333 10.027 33.8C10.127 36.6333 10.8603 38.6667 12.227 39.9C13.627 41.1333 15.4603 41.75 17.727 41.75C19.227 41.75 20.5603 41.4833 21.727 40.95C22.927 40.4167 23.8603 39.5833 24.527 38.45C25.227 37.3167 25.577 35.8667 25.577 34.1V32.55H19.477C19.1436 32.55 18.8603 32.4333 18.627 32.2C18.3936 31.9667 18.277 31.6667 18.277 31.3V28.65C18.277 28.2833 18.3936 27.9833 18.627 27.75C18.8603 27.5167 19.1436 27.4 19.477 27.4H31.427C31.7936 27.4 32.077 27.5167 32.277 27.75C32.5103 27.9833 32.627 28.2833 32.627 28.65V33.9C32.627 36.7 32.0103 39.1167 30.777 41.15C29.577 43.1833 27.8436 44.75 25.577 45.85C23.3436 46.95 20.6936 47.5 17.627 47.5ZM46.9867 47.5C45.2534 47.5 43.6867 47.1667 42.2867 46.5C40.8867 45.8 39.7701 44.8833 38.9367 43.75C38.1367 42.5833 37.7367 41.2833 37.7367 39.85C37.7367 37.5167 38.6701 35.6667 40.5367 34.3C42.4367 32.9 44.9367 31.9667 48.0367 31.5L54.8867 30.5V29.45C54.8867 28.05 54.5367 26.9667 53.8367 26.2C53.1367 25.4333 51.9367 25.05 50.2367 25.05C49.0367 25.05 48.0534 25.3 47.2867 25.8C46.5534 26.2667 46.0034 26.9 45.6367 27.7C45.3701 28.1333 44.9867 28.35 44.4867 28.35H40.5367C40.1701 28.35 39.8867 28.25 39.6867 28.05C39.5201 27.85 39.4367 27.5833 39.4367 27.25C39.4701 26.7167 39.6867 26.0667 40.0867 25.3C40.4867 24.5333 41.1201 23.8 41.9867 23.1C42.8534 22.3667 43.9701 21.75 45.3367 21.25C46.7034 20.75 48.3534 20.5 50.2867 20.5C52.3867 20.5 54.1534 20.7667 55.5867 21.3C57.0534 21.8 58.2201 22.4833 59.0867 23.35C59.9534 24.2167 60.5867 25.2333 60.9867 26.4C61.3867 27.5667 61.5867 28.8 61.5867 30.1V45.8C61.5867 46.1333 61.4701 46.4167 61.2367 46.65C61.0034 46.8833 60.7201 47 60.3867 47H56.3367C55.9701 47 55.6701 46.8833 55.4367 46.65C55.2367 46.4167 55.1367 46.1333 55.1367 45.8V43.85C54.7034 44.4833 54.1201 45.0833 53.3867 45.65C52.6534 46.1833 51.7534 46.6333 50.6867 47C49.6534 47.3333 48.4201 47.5 46.9867 47.5ZM48.6867 42.75C49.8534 42.75 50.9034 42.5 51.8367 42C52.8034 41.5 53.5534 40.7333 54.0867 39.7C54.6534 38.6333 54.9367 37.3 54.9367 35.7V34.65L49.9367 35.45C47.9701 35.75 46.5034 36.2333 45.5367 36.9C44.5701 37.5667 44.0867 38.3833 44.0867 39.35C44.0867 40.0833 44.3034 40.7167 44.7367 41.25C45.2034 41.75 45.7867 42.1333 46.4867 42.4C47.1867 42.6333 47.9201 42.75 48.6867 42.75ZM78.6512 47.5C76.6178 47.5 74.8512 47.05 73.3512 46.15C71.8845 45.2167 70.7512 43.9167 69.9512 42.25C69.1512 40.55 68.7512 38.55 68.7512 36.25V22.2C68.7512 21.8667 68.8678 21.5833 69.1012 21.35C69.3345 21.1167 69.6178 21 69.9512 21H74.3512C74.7178 21 75.0012 21.1167 75.2012 21.35C75.4345 21.5833 75.5512 21.8667 75.5512 22.2V35.95C75.5512 40.0833 77.3678 42.15 81.0012 42.15C82.7345 42.15 84.1012 41.6 85.1012 40.5C86.1345 39.4 86.6512 37.8833 86.6512 35.95V22.2C86.6512 21.8667 86.7678 21.5833 87.0012 21.35C87.2345 21.1167 87.5178 21 87.8512 21H92.2512C92.5845 21 92.8678 21.1167 93.1012 21.35C93.3345 21.5833 93.4512 21.8667 93.4512 22.2V45.8C93.4512 46.1333 93.3345 46.4167 93.1012 46.65C92.8678 46.8833 92.5845 47 92.2512 47H88.2012C87.8345 47 87.5345 46.8833 87.3012 46.65C87.1012 46.4167 87.0012 46.1333 87.0012 45.8V43.75C86.1012 44.9167 84.9845 45.8333 83.6512 46.5C82.3178 47.1667 80.6512 47.5 78.6512 47.5ZM112.806 47C110.806 47 109.123 46.65 107.756 45.95C106.389 45.25 105.373 44.2167 104.706 42.85C104.039 41.45 103.706 39.7167 103.706 37.65V26.3H99.7559C99.4225 26.3 99.1392 26.1833 98.9059 25.95C98.6725 25.7167 98.5559 25.4333 98.5559 25.1V22.2C98.5559 21.8667 98.6725 21.5833 98.9059 21.35C99.1392 21.1167 99.4225 21 99.7559 21H103.706V12.7C103.706 12.3667 103.806 12.0833 104.006 11.85C104.239 11.6167 104.539 11.5 104.906 11.5H108.956C109.289 11.5 109.573 11.6167 109.806 11.85C110.039 12.0833 110.156 12.3667 110.156 12.7V21H116.406C116.739 21 117.023 21.1167 117.256 21.35C117.489 21.5833 117.606 21.8667 117.606 22.2V25.1C117.606 25.4333 117.489 25.7167 117.256 25.95C117.023 26.1833 116.739 26.3 116.406 26.3H110.156V37.15C110.156 38.5167 110.389 39.5833 110.856 40.35C111.356 41.1167 112.206 41.5 113.406 41.5H116.856C117.189 41.5 117.473 41.6167 117.706 41.85C117.939 42.0833 118.056 42.3667 118.056 42.7V45.8C118.056 46.1333 117.939 46.4167 117.706 46.65C117.473 46.8833 117.189 47 116.856 47H112.806ZM131.041 47.5C129.308 47.5 127.741 47.1667 126.341 46.5C124.941 45.8 123.825 44.8833 122.991 43.75C122.191 42.5833 121.791 41.2833 121.791 39.85C121.791 37.5167 122.725 35.6667 124.591 34.3C126.491 32.9 128.991 31.9667 132.091 31.5L138.941 30.5V29.45C138.941 28.05 138.591 26.9667 137.891 26.2C137.191 25.4333 135.991 25.05 134.291 25.05C133.091 25.05 132.108 25.3 131.341 25.8C130.608 26.2667 130.058 26.9 129.691 27.7C129.425 28.1333 129.041 28.35 128.541 28.35H124.591C124.225 28.35 123.941 28.25 123.741 28.05C123.575 27.85 123.491 27.5833 123.491 27.25C123.525 26.7167 123.741 26.0667 124.141 25.3C124.541 24.5333 125.175 23.8 126.041 23.1C126.908 22.3667 128.025 21.75 129.391 21.25C130.758 20.75 132.408 20.5 134.341 20.5C136.441 20.5 138.208 20.7667 139.641 21.3C141.108 21.8 142.275 22.4833 143.141 23.35C144.008 24.2167 144.641 25.2333 145.041 26.4C145.441 27.5667 145.641 28.8 145.641 30.1V45.8C145.641 46.1333 145.525 46.4167 145.291 46.65C145.058 46.8833 144.775 47 144.441 47H140.391C140.025 47 139.725 46.8833 139.491 46.65C139.291 46.4167 139.191 46.1333 139.191 45.8V43.85C138.758 44.4833 138.175 45.0833 137.441 45.65C136.708 46.1833 135.808 46.6333 134.741 47C133.708 47.3333 132.475 47.5 131.041 47.5ZM132.741 42.75C133.908 42.75 134.958 42.5 135.891 42C136.858 41.5 137.608 40.7333 138.141 39.7C138.708 38.6333 138.991 37.3 138.991 35.7V34.65L133.991 35.45C132.025 35.75 130.558 36.2333 129.591 36.9C128.625 37.5667 128.141 38.3833 128.141 39.35C128.141 40.0833 128.358 40.7167 128.791 41.25C129.258 41.75 129.841 42.1333 130.541 42.4C131.241 42.6333 131.975 42.75 132.741 42.75ZM154.256 47C153.923 47 153.639 46.8833 153.406 46.65C153.173 46.4167 153.056 46.1333 153.056 45.8V22.2C153.056 21.8667 153.173 21.5833 153.406 21.35C153.639 21.1167 153.923 21 154.256 21H158.156C158.489 21 158.773 21.1167 159.006 21.35C159.239 21.5833 159.356 21.8667 159.356 22.2V23.9C160.056 22.9667 160.989 22.1833 162.156 21.55C163.356 20.8833 164.773 20.5333 166.406 20.5C170.206 20.4333 172.856 21.9167 174.356 24.95C175.123 23.6167 176.223 22.55 177.656 21.75C179.123 20.9167 180.739 20.5 182.506 20.5C184.239 20.5 185.806 20.9 187.206 21.7C188.639 22.5 189.756 23.7167 190.556 25.35C191.389 26.95 191.806 28.9833 191.806 31.45V45.8C191.806 46.1333 191.689 46.4167 191.456 46.65C191.223 46.8833 190.939 47 190.606 47H186.506C186.173 47 185.889 46.8833 185.656 46.65C185.423 46.4167 185.306 46.1333 185.306 45.8V31.85C185.306 30.35 185.089 29.1667 184.656 28.3C184.223 27.4 183.639 26.7667 182.906 26.4C182.173 26.0333 181.356 25.85 180.456 25.85C179.723 25.85 178.989 26.0333 178.256 26.4C177.523 26.7667 176.923 27.4 176.456 28.3C175.989 29.1667 175.756 30.35 175.756 31.85V45.8C175.756 46.1333 175.639 46.4167 175.406 46.65C175.173 46.8833 174.889 47 174.556 47H170.456C170.089 47 169.789 46.8833 169.556 46.65C169.356 46.4167 169.256 46.1333 169.256 45.8V31.85C169.256 30.35 169.023 29.1667 168.556 28.3C168.089 27.4 167.489 26.7667 166.756 26.4C166.023 26.0333 165.239 25.85 164.406 25.85C163.639 25.85 162.889 26.05 162.156 26.45C161.423 26.8167 160.823 27.4333 160.356 28.3C159.889 29.1667 159.656 30.35 159.656 31.85V45.8C159.656 46.1333 159.539 46.4167 159.306 46.65C159.073 46.8833 158.789 47 158.456 47H154.256Z" fill="#002D62"/>
<circle cx="208" cy="41" r="6" fill="url(#paint0_linear_1_38)"/>
<defs>
<linearGradient id="paint0_linear_1_38" x1="208" y1="41" x2="202" y2="35" gradientUnits="userSpaceOnUse">
<stop stop-color="#FD481B"/>
<stop offset="1" stop-color="#FD481B" stop-opacity="0"/>
</linearGradient>
</defs>
</svg>
