<svg width="71" height="94" viewBox="0 0 71 94" fill="none" xmlns="http://www.w3.org/2000/svg">
<path d="M30.1315 93.2012C21.4299 92.574 12.8295 90.3837 7.55493 87.4515C4.55055 85.7814 2.26162 83.7289 1.36344 81.8995L0.829041 80.811V46.6705V12.5299L1.25191 11.6713C3.14163 7.83463 9.17257 4.37589 17.5914 2.30061C20.4493 1.5961 24.5749 0.89452 27.9407 0.540738C31.3775 0.179386 40.4872 0.234363 43.9155 0.63768C53.0273 1.70819 60.7809 4.10479 65.5591 7.32774C67.4018 8.57063 69.2926 10.5594 69.9332 11.9283L70.4824 13.102L70.4354 47.1393L70.3884 81.1768L69.9475 82.0724C69.7051 82.565 68.9727 83.5341 68.32 84.2259C64.3468 88.4377 55.8245 91.5533 44.6459 92.8808C42.3675 93.1515 32.4691 93.3698 30.1315 93.2012ZM46.1673 63.9473C46.1338 63.8601 44.833 62.7012 43.2766 61.372C41.7202 60.0428 40.3797 58.8928 40.2977 58.8164C40.2158 58.7401 40.5033 58.4698 40.9368 58.2157C41.3702 57.9617 42.2005 57.2549 42.782 56.6451C44.4825 54.862 45.2848 52.6593 45.2848 49.7741C45.2848 46.9338 44.4195 44.6421 42.6863 42.8927C40.9396 41.1294 38.9339 40.3717 36.0132 40.3717C31.5112 40.3717 28.0536 42.9987 26.95 47.2576C26.5704 48.7225 26.5724 51.6826 26.954 52.9816C27.9492 56.3698 30.6597 58.8306 34.0331 59.4085C35.1747 59.604 35.3293 59.6883 36.1076 60.5392C36.5701 61.0449 37.5192 62.0542 38.2168 62.7822L39.4851 64.1059H42.8566C44.711 64.1059 46.2007 64.0346 46.1673 63.9473ZM34.6049 54.5072C33.7932 54.084 33.4864 53.7556 33.0235 52.8146C32.666 52.0879 32.6049 51.6745 32.6009 49.9568C32.5969 48.2114 32.6524 47.8342 33.0257 47.0763C33.6364 45.8361 34.4779 45.249 35.7798 45.1548C37.5919 45.0233 38.6379 45.9127 39.1861 48.05C39.8583 50.6705 39.1191 53.4564 37.5065 54.381C36.6605 54.8661 35.3985 54.921 34.6049 54.5072ZM19.6606 59.3713C23.1955 58.7009 25.2021 56.6452 25.2021 53.6941C25.2021 51.0761 23.9066 49.5507 20.3262 47.9523C18.2765 47.0373 17.5341 46.4629 17.5341 45.7919C17.5341 45.2357 18.2387 44.6262 19.0589 44.4731C19.8597 44.3236 21.9837 44.6925 23.2379 45.1991L24.2893 45.6239V43.2967V40.9694L23.1482 40.7162C22.443 40.5598 20.9611 40.4659 19.2686 40.4707C16.8711 40.4707 16.4017 40.5291 15.4995 40.8874C12.8641 41.9336 11.6136 43.7158 11.6336 46.3967C11.6523 48.9063 12.9762 50.4718 16.2713 51.8801C18.2155 52.7111 18.9948 53.3438 18.9948 54.0916C18.9948 55.6805 16.3472 55.8761 13.5441 54.4942C12.7765 54.1157 12.0867 53.7752 12.0114 53.7375C11.9361 53.6998 11.8745 54.7869 11.8745 56.1534C11.8745 58.6266 11.8772 58.6386 12.325 58.8091C14.0112 59.4502 17.7383 59.7358 19.6606 59.3713ZM60.073 57.0769V54.9774H56.8781H53.683V47.7658V40.5543H50.8532H48.0234V49.8654V59.1765H54.0482H60.073V57.0769ZM40.3554 20.2844C45.9788 19.8943 50.1941 19.1579 53.9035 17.9177C57.5989 16.6821 59.7818 15.1871 60.2702 13.5573C60.4583 12.9293 60.4448 12.6911 60.1819 12.0025C59.0029 8.91557 52.4171 6.54383 42.3534 5.58222C38.0486 5.1708 30.2198 5.30417 26.1152 5.85862C19.8523 6.70482 14.7696 8.27662 12.5096 10.0661C7.93791 13.6863 12.7725 17.668 24.0155 19.5421C28.8904 20.3547 35.2062 20.6416 40.3554 20.2844Z" fill="#00BCF2"/>
<path d="M50.271 77.5113L43.2868 84.5409C42.95 84.8799 42.4039 84.8799 42.0671 84.5409L41.2524 83.721C40.9162 83.3825 40.9155 82.834 41.251 82.4948L46.7862 76.8974L41.251 71.3002C40.9156 70.9609 40.9162 70.4124 41.2525 70.0739L42.0671 69.254C42.4039 68.915 42.95 68.915 43.2868 69.254L50.271 76.2836C50.6079 76.6226 50.6079 77.1723 50.271 77.5113ZM63.9998 84.1317V82.9742C63.9998 82.4947 63.6137 82.1061 63.1373 82.1061H52.2123C51.736 82.1061 51.3498 82.4947 51.3498 82.9742V84.1317C51.3498 84.6111 51.736 84.9998 52.2123 84.9998H63.1373C63.6137 84.9998 63.9998 84.6111 63.9998 84.1317Z" fill="black"/>
</svg>
