<svg width="120" height="108" viewBox="0 0 120 108" fill="none" xmlns="http://www.w3.org/2000/svg">
<path d="M17.1429 15.3208H102.857C103.858 15.3204 104.859 15.3839 105.852 15.511C105.515 13.1479 104.703 10.8774 103.466 8.83652C102.228 6.7956 100.589 5.02649 98.6494 3.63585C96.7093 2.24521 94.5078 1.26185 92.1774 0.745059C89.8471 0.228265 87.4362 0.188743 85.0902 0.628874L14.5982 12.6637H14.5179C10.0931 13.5098 6.1582 16.0133 3.51696 19.6628C7.49624 16.8324 12.2597 15.3145 17.1429 15.3208Z" fill="#4B4B4B"/>
<path d="M102.857 21.7494H17.1429C12.5978 21.7544 8.24034 23.5621 5.02651 26.7759C1.81267 29.9898 0.004963 34.3472 0 38.8923V90.3209C0.004963 94.8659 1.81267 99.2234 5.02651 102.437C8.24034 105.651 12.5978 107.459 17.1429 107.464H102.857C107.402 107.459 111.76 105.651 114.973 102.437C118.187 99.2234 119.995 94.8659 120 90.3209V38.8923C119.995 34.3472 118.187 29.9898 114.973 26.7759C111.76 23.5621 107.402 21.7544 102.857 21.7494ZM90.1339 73.178C88.4387 73.178 86.7815 72.6753 85.3719 71.7335C83.9623 70.7916 82.8637 69.4529 82.215 67.8867C81.5662 66.3205 81.3965 64.5971 81.7272 62.9344C82.0579 61.2717 82.8743 59.7444 84.073 58.5457C85.2717 57.3469 86.799 56.5306 88.4617 56.1998C90.1244 55.8691 91.8478 56.0389 93.4141 56.6876C94.9803 57.3364 96.319 58.435 97.2608 59.8445C98.2027 61.2541 98.7054 62.9113 98.7054 64.6066C98.7054 66.8799 97.8023 69.06 96.1948 70.6675C94.5874 72.2749 92.4072 73.178 90.1339 73.178Z" fill="#4B4B4B"/>
<path d="M0.133924 56.9726V30.3209C0.133924 24.5164 3.34821 14.7851 14.5045 12.6771C23.9732 10.9012 33.3482 10.9012 33.3482 10.9012C33.3482 10.9012 39.5089 15.1869 34.4196 15.1869C29.3304 15.1869 29.4643 21.7494 34.4196 21.7494C39.375 21.7494 34.4196 28.0441 34.4196 28.0441L14.4643 50.678L0.133924 56.9726Z" fill="#4B4B4B"/>
</svg>
