<svg width="120" height="127" viewBox="0 0 120 127" fill="none" xmlns="http://www.w3.org/2000/svg">
<path d="M22.1053 3.55261C22.1053 1.80857 23.519 0.394714 25.2632 0.394714C27.0073 0.394714 28.4211 1.80857 28.4211 3.55261V22.5C28.4211 24.2441 27.0073 25.6579 25.2632 25.6579C23.519 25.6579 22.1053 24.2441 22.1053 22.5V3.55261Z" fill="#4B4B4B"/>
<path d="M72.6316 3.55261C72.6316 1.80857 74.0454 0.394714 75.7895 0.394714C77.5336 0.394714 78.9474 1.80857 78.9474 3.55261V22.5C78.9474 24.2441 77.5336 25.6579 75.7895 25.6579C74.0454 25.6579 72.6316 24.2441 72.6316 22.5V3.55261Z" fill="#4B4B4B"/>
<path fill-rule="evenodd" clip-rule="evenodd" d="M28.421 60.3947H22.1053V66.7105H28.421V60.3947ZM22.1053 54.079C18.617 54.079 15.7895 56.9065 15.7895 60.3947V66.7105C15.7895 70.1987 18.617 73.0263 22.1053 73.0263H28.421C31.9093 73.0263 34.7368 70.1987 34.7368 66.7105V60.3947C34.7368 56.9065 31.9093 54.079 28.421 54.079H22.1053Z" fill="#4B4B4B"/>
<path fill-rule="evenodd" clip-rule="evenodd" d="M53.6842 60.3947H47.3684V66.7105H53.6842V60.3947ZM47.3684 54.079C43.8802 54.079 41.0526 56.9065 41.0526 60.3947V66.7105C41.0526 70.1987 43.8802 73.0263 47.3684 73.0263H53.6842C57.1724 73.0263 60 70.1987 60 66.7105V60.3947C60 56.9065 57.1724 54.079 53.6842 54.079H47.3684Z" fill="#4B4B4B"/>
<path fill-rule="evenodd" clip-rule="evenodd" d="M78.9474 60.3947H72.6316V66.7105H78.9474V60.3947ZM72.6316 54.079C69.1434 54.079 66.3158 56.9065 66.3158 60.3947V66.7105C66.3158 70.1987 69.1434 73.0263 72.6316 73.0263H78.9474C82.4356 73.0263 85.2632 70.1987 85.2632 66.7105V60.3947C85.2632 56.9065 82.4356 54.079 78.9474 54.079H72.6316Z" fill="#4B4B4B"/>
<path fill-rule="evenodd" clip-rule="evenodd" d="M28.421 85.6579H22.1053V91.9737H28.421V85.6579ZM22.1053 79.3421C18.617 79.3421 15.7895 82.1697 15.7895 85.6579V91.9737C15.7895 95.4619 18.617 98.2894 22.1053 98.2894H28.421C31.9093 98.2894 34.7368 95.4619 34.7368 91.9737V85.6579C34.7368 82.1697 31.9093 79.3421 28.421 79.3421H22.1053Z" fill="#4B4B4B"/>
<path fill-rule="evenodd" clip-rule="evenodd" d="M53.6842 85.6579H47.3684V91.9737H53.6842V85.6579ZM47.3684 79.3421C43.8802 79.3421 41.0526 82.1697 41.0526 85.6579V91.9737C41.0526 95.4619 43.8802 98.2894 47.3684 98.2894H53.6842C57.1724 98.2894 60 95.4619 60 91.9737V85.6579C60 82.1697 57.1724 79.3421 53.6842 79.3421H47.3684Z" fill="#4B4B4B"/>
<path fill-rule="evenodd" clip-rule="evenodd" d="M12.6316 19.3421H88.4211C91.9093 19.3421 94.7368 22.1696 94.7368 25.6579V76.1842C96.9177 76.1842 99.0341 76.4605 101.053 76.98V25.6579C101.053 18.6816 95.3972 13.0263 88.4211 13.0263H12.6316C5.65535 13.0263 0 18.6816 0 25.6579V101.447C0 108.423 5.65535 114.079 12.6316 114.079H72.8536C71.7227 112.124 70.8464 110.004 70.2695 107.763H12.6316C9.14346 107.763 6.31579 104.936 6.31579 101.447V25.6579C6.31579 22.1696 9.14346 19.3421 12.6316 19.3421Z" fill="#4B4B4B"/>
<path d="M0 25.6579C0 18.6816 5.65535 13.0263 12.6316 13.0263H88.4211C95.3972 13.0263 101.053 18.6816 101.053 25.6579V47.7631H0V25.6579Z" fill="#4B4B4B"/>
<path fill-rule="evenodd" clip-rule="evenodd" d="M88.4211 19.3421H12.6316C9.14346 19.3421 6.31579 22.1696 6.31579 25.6579V41.4473H94.7368V25.6579C94.7368 22.1696 91.9093 19.3421 88.4211 19.3421ZM12.6316 13.0263C5.65535 13.0263 0 18.6816 0 25.6579V47.7631H101.053V25.6579C101.053 18.6816 95.3972 13.0263 88.4211 13.0263H12.6316Z" fill="#4B4B4B"/>
<path fill-rule="evenodd" clip-rule="evenodd" d="M97.8947 47.7632H3.15789V41.4474H97.8947V47.7632Z" fill="#4B4B4B"/>
<path fill-rule="evenodd" clip-rule="evenodd" d="M94.7368 120.395C105.201 120.395 113.684 111.912 113.684 101.447C113.684 90.983 105.201 82.4999 94.7368 82.4999C84.2725 82.4999 75.7895 90.983 75.7895 101.447C75.7895 111.912 84.2725 120.395 94.7368 120.395ZM94.7368 126.71C108.689 126.71 120 115.4 120 101.447C120 87.4948 108.689 76.1842 94.7368 76.1842C80.7843 76.1842 69.4737 87.4948 69.4737 101.447C69.4737 115.4 80.7843 126.71 94.7368 126.71Z" fill="#4B4B4B"/>
<path fill-rule="evenodd" clip-rule="evenodd" d="M94.7368 86.2222C96.481 86.2222 97.8947 87.636 97.8947 89.3801V102.953L105.636 108.327C107.069 109.321 107.424 111.289 106.43 112.722C105.435 114.154 103.467 114.51 102.035 113.515L91.5789 106.257V89.3801C91.5789 87.636 92.9927 86.2222 94.7368 86.2222Z" fill="#4B4B4B"/>
</svg>
