<svg width="120" height="136" viewBox="0 0 120 136" fill="none" xmlns="http://www.w3.org/2000/svg">
<path d="M112.5 0.394714H22.5C16.5326 0.394714 10.8097 2.76524 6.5901 6.98481C2.37053 11.2044 0 16.9273 0 22.8947V112.895C0 118.862 2.37053 124.585 6.5901 128.805C10.8097 133.024 16.5326 135.395 22.5 135.395H112.5C114.489 135.395 116.397 134.605 117.803 133.198C119.21 131.792 120 129.884 120 127.895V7.89471C120 5.90559 119.21 3.99794 117.803 2.59141C116.397 1.18489 114.489 0.394714 112.5 0.394714ZM22.5 120.395C20.5109 120.395 18.6032 119.605 17.1967 118.198C15.7902 116.791 15 114.884 15 112.895C15 110.906 15.7902 108.998 17.1967 107.591C18.6032 106.185 20.5109 105.395 22.5 105.395H105V120.395H22.5Z" fill="#4B4B4B"/>
<path d="M92.4185 48.0209C92.2678 44.2469 91.3751 40.5396 89.7912 37.1107C88.067 33.369 85.6276 30.0007 82.6103 27.1955C76.2619 21.2442 67.8945 17.9668 59.0492 17.9668C52.4446 17.9668 45.9883 19.9253 40.4968 23.5946C35.0053 27.2639 30.7251 32.4792 28.1977 38.5811C25.6702 44.683 25.0089 51.3973 26.2974 57.875C27.5859 64.3527 30.7663 70.3028 35.4365 74.973C41.6572 81.1937 50.0815 84.7084 58.8789 84.7532C67.6762 84.7981 76.1359 81.3696 82.4198 75.2126L79.3031 72.0324C73.9035 77.3474 66.6258 80.3186 59.0492 80.3012C43.0912 80.3012 30.1083 67.3183 30.1083 51.3602C30.1083 35.4022 43.0912 22.4193 59.0492 22.4193C74.7369 22.4193 87.9902 34.6531 87.9902 49.134V54.143C87.9902 58.1326 84.4948 61.3783 80.1984 61.3783C75.9021 61.3783 72.4066 58.1326 72.4066 54.143V38.0029H67.9542V41.725C65.888 39.8059 63.2875 38.56 60.4973 38.1524C57.7071 37.7448 54.8588 38.1946 52.33 39.4424C49.8013 40.6902 47.7114 42.677 46.3373 45.1394C44.9633 47.6019 44.3699 50.4237 44.636 53.231C44.902 56.0383 46.0148 58.6984 47.8269 60.859C49.6391 63.0195 52.065 64.5783 54.7831 65.3289C57.5012 66.0795 60.3833 65.9863 63.0473 65.0618C65.7113 64.1374 68.0315 62.4252 69.7004 60.1522C71.8439 63.5516 75.7474 65.8307 80.1984 65.8307C86.9499 65.8307 92.4427 60.5877 92.4427 54.143V48.0209H92.4185ZM58.4927 61.3783C56.6214 61.3783 54.7921 60.8234 53.2362 59.7837C51.6802 58.7441 50.4676 57.2664 49.7514 55.5375C49.0353 53.8087 48.8479 51.9063 49.213 50.0709C49.5781 48.2356 50.4792 46.5497 51.8024 45.2265C53.1256 43.9033 54.8115 43.0022 56.6469 42.6371C58.4822 42.2721 60.3846 42.4594 62.1134 43.1755C63.8423 43.8916 65.32 45.1044 66.3596 46.6603C67.3993 48.2162 67.9542 50.0455 67.9542 51.9168C67.9513 54.4253 66.9536 56.8302 65.1798 58.6039C63.4061 60.3777 61.0012 61.3754 58.4927 61.3783Z" fill="#F2F2F2"/>
</svg>
